<svg height="512" viewBox="0 0 58 58" width="512" xmlns="http://www.w3.org/2000/svg"><g id="Page-1" fill="none" fill-rule="evenodd"><g id="036---Love-Cake" fill-rule="nonzero"><path id="Shape" d="m58 53v1c0 2.209139-1.790861 4-4 4h-50c-2.209139 0-4-1.790861-4-4v-1c0-.5522847.44771525-1 1-1h39v.89c-.0203758 1.0626957.7651971 1.9691259 1.82 2.1.5584101.04741 1.1112582-.1404629 1.5251607-.5182913s.651272-.9113009.6548393-1.4717087v-1h4.01c.0250549 1.0209269.7960126 1.8685544 1.81 1.99.5584101.04741 1.1112582-.1404629 1.5251607-.5182913s.651272-.9113009.6548393-1.4717087h5c.2652165 0 .5195704.1053568.7071068.2928932s.2928932.4418903.2928932.7071068z" fill="#3d324c"/><path id="Shape" d="m54 29h-50c-1.10320187.0032948-1.9967052.8967981-2 2v21h38v.89c-.0203758 1.0626957.7651971 1.9691259 1.82 2.1.5584101.04741 1.1112582-.1404629 1.5251607-.5182913s.651272-.9113009.6548393-1.4717087v-1h4.01c.0250549 1.0209269.7960126 1.8685544 1.81 1.99.5584101.04741 1.1112582-.1404629 1.5251607-.5182913s.651272-.9113009.6548393-1.4717087h4v-21c-.0032948-1.1032019-.8967981-1.9967052-2-2z" fill="#e4c05c"/><path id="Shape" d="m56 33v7h-2c-1.1032019.0032948-1.9967052.8967981-2 2v10c-.0035673.5604078-.2409368 1.0938803-.6548393 1.4717087s-.9667506.5657013-1.5251607.5182913c-1.0139874-.1214456-1.7849451-.9690731-1.81-1.99-.0082797-.0360478-.0116435-.0730501-.01-.11v-5.89c-.0035673-.5604078-.2409368-1.0938803-.6548393-1.4717087s-.9667506-.5657013-1.5251607-.5182913c-1.0548029.1308741-1.8403758 1.0373043-1.82 2.1v6.89c-.0035673.5604078-.2409368 1.0938803-.6548393 1.4717087s-.9667506.5657013-1.5251607.5182913c-1.0548029-.1308741-1.8403758-1.0373043-1.82-2.1v-10.89c-.0032948-1.1032019-.8967981-1.9967052-2-2h-36v-7l2.63 2.04c.72091663.570082 1.73908337.570082 2.46 0l1.4-1.08c.71722465-.5699508 1.7327754-.5699508 2.45 0l1.4 1.08c.7209166.570082 1.7390834.570082 2.46 0l1.4-1.08c.7209166-.570082 1.7390834-.570082 2.46 0l1.4 1.08c.7172246.5699508 1.7327754.5699508 2.45 0l1.4-1.08c.7209166-.570082 1.7390834-.570082 2.46 0l1.4 1.08c.7209166.570082 1.7390834.570082 2.46 0l1.4-1.08c.7209166-.570082 1.7390834-.570082 2.46 0l1.4 1.08c.7172246.5699508 1.7327754.5699508 2.45 0l1.4-1.08c.7209166-.570082 1.7390834-.570082 2.46 0l1.4 1.08c.7209166.570082 1.7390834.570082 2.46 0l1.4-1.08c.7172246-.5699508 1.7327754-.5699508 2.45 0l1.4 1.08c.7209166.570082 1.7390834.570082 2.46 0z" fill="#e64c3c"/><path id="Shape" d="m56 31v2l-2.63 2.04c-.7209166.570082-1.7390834.570082-2.46 0l-1.4-1.08c-.7172246-.5699508-1.7327754-.5699508-2.45 0l-1.4 1.08c-.7209166.570082-1.7390834.570082-2.46 0l-1.4-1.08c-.7209166-.570082-1.7390834-.570082-2.46 0l-1.4 1.08c-.7172246.5699508-1.7327754.5699508-2.45 0l-1.4-1.08c-.7209166-.570082-1.7390834-.570082-2.46 0l-1.4 1.08c-.7209166.570082-1.7390834.570082-2.46 0l-1.4-1.08c-.7209166-.570082-1.7390834-.570082-2.46 0l-1.4 1.08c-.7172246.5699508-1.7327754.5699508-2.45 0l-1.4-1.08c-.7209166-.570082-1.7390834-.570082-2.46 0l-1.4 1.08c-.7209166.570082-1.7390834.570082-2.46 0l-1.4-1.08c-.7172246-.5699508-1.73277535-.5699508-2.45 0l-1.4 1.08c-.72091663.570082-1.73908337.570082-2.46 0l-2.63-2.04v-2c.0032948-1.1032019.89679813-1.9967052 2-2h50c1.1032019.0032948 1.9967052.8967981 2 2z" fill="#894b9d"/><path id="Shape" d="m48 17h-38c-1.10320187.0032948-1.9967052.8967981-2 2v10h42v-10c-.0032948-1.1032019-.8967981-1.9967052-2-2z" fill="#e4c05c"/><path id="Shape" d="m50 19v3.96l-.62-.47c-1.1547363-.8801624-2.7552637-.8801624-3.91 0l-2.23 1.7c-1.1581474.8700016-2.7518526.8700016-3.91 0l-2.23-1.7c-1.1547363-.8801624-2.7552637-.8801624-3.91 0l-2.23 1.7c-1.1618511.8700016-2.7581489.8700016-3.92 0l-2.23-1.7c-1.1547363-.8801624-2.7552637-.8801624-3.91 0l-2.23 1.7c-1.1581474.8700016-2.7518526.8700016-3.91 0l-2.23-1.7c-1.1547363-.8801624-2.75526371-.8801624-3.91 0l-.62.47v-3.96c.0032948-1.1032019.89679813-1.9967052 2-2h38c1.1032019.0032948 1.9967052.8967981 2 2z" fill="#ff5364"/><path id="Shape" d="m30.26 4.83c.0720151 1.61178171-.3691448 3.2048593-1.26 4.55-1.7115634 2.5731957-3.696441 4.9537077-5.92 7.1-.3194983.3313504-.7597053.5189796-1.22.52-.3571637.0009459-.7048366-.1149451-.99-.33-5.13-3.89-8.58-6.68-8.85-10.31-.22-2.81 1.46-5.35 4.16-5.58 1.9529786-.06784599 3.7882241.93215209 4.79 2.61.7351853-1.82220376 2.3924764-3.10908652 4.34-3.37 1.4175665-.12818764 2.8044643.46566021 3.69 1.58.7492532.91735405 1.1901589 2.04761214 1.26 3.23z" fill="#e64c3c"/><path id="Shape" d="m45.98 6.36c-.27 3.63-3.71 6.42-8.84 10.31-.2858783.2136914-.6330825.3294261-.99.33-.4654948.0002688-.9104888-.1914766-1.23-.53-2.231287-2.1326941-4.2139158-4.5111777-5.91-7.09h-.01c.8908552-1.3451407 1.3320151-2.93821829 1.26-4.55-.0698411-1.18238786-.5107468-2.31264595-1.26-3.23l.01-.01c.8839649-1.10971113 2.2672036-1.69984288 3.68-1.57 1.9457937.25947019 3.6007141 1.54747982 4.33 3.37 1.0010689-1.67740042 2.8380106-2.67448773 4.79-2.6 2.7.23 4.39 2.75 4.17 5.57z" fill="#c03a2b"/></g></g></svg>